# xmcd
#
# Track frame offsets: 
#        150
#        14067
#        30333
#        47733
#        67334
#        81436
#        100151
#        127058
#        135874
#        151796
#        173477
#        190029
#        217777
#        243024
#        256011
#        270887
#        287378
#
# Disc length: 4151 seconds
#
# Revision: 1
# Processed by: cddbd v1.5.1PL2 Copyright (c) Steve Scherf et al.
# Submitted via: ExactAudioCopy v0.95a5
#
DISCID=d3103511
DTITLE=Crazy Chris Kramer and Friends Vol. 3 - Guarantee For The Blues -
DTITLE=Second Set
DYEAR=2003
DGENRE=Blues
TTITLE0=Mastercook
TTITLE1=Gangster Blues
TTITLE2=Bless My Soul
TTITLE3=Don't Wish I Was Dead
TTITLE4=I Never Felt So Fine
TTITLE5=Messin' With The Kid
TTITLE6=Apetite Blues
TTITLE7=If It Don't Fit Don't Force It
TTITLE8=Train, Sweet Train
TTITLE9=If I Ever Loose Your Lovin'
TTITLE10=Life Is A Bitch
TTITLE11=I Was 19 Years Old
TTITLE12=My Ramblin' Soul Is Restless
TTITLE13=I Intent To Survive
TTITLE14=Rescue Me
TTITLE15=The One You Love
TTITLE16=Finally Falls The Rain
EXTD=
EXTT0=
EXTT1=
EXTT2=
EXTT3=
EXTT4=
EXTT5=
EXTT6=
EXTT7=
EXTT8=
EXTT9=
EXTT10=
EXTT11=
EXTT12=
EXTT13=
EXTT14=
EXTT15=
EXTT16=
PLAYORDER=
